<svg width="22" height="23" viewBox="0 0 22 23" fill="none" xmlns="http://www.w3.org/2000/svg">
<path id="Union" fill-rule="evenodd" clip-rule="evenodd" d="M2 2H20V10H22V2C22 0.895431 21.1046 0 20 0H2C0.895431 0 0 0.89543 0 2V21C0 22.1046 0.89543 23 2 23H9V21H2L2 2ZM12 23V20.946L17.7829 15.1855L19.845 17.2395L14.062 23H12ZM20.5271 16.56L18.4651 14.506L19.7674 13.2088C19.8811 13.0749 20.0103 13.0054 20.155 13.0003C20.2997 12.9951 20.4444 13.0646 20.5891 13.2088L21.7985 14.4134C21.9328 14.5472 22 14.6888 22 14.8381C22 14.9873 21.9432 15.1289 21.8295 15.2628L20.5271 16.56ZM17 5H5V7H17V5ZM5 10H14V12H5V10ZM11 15H5V17H11V15Z" fill="#E3E3E4"/>
</svg>
