<svg width="60" height="60" viewBox="0 0 60 60" fill="none" xmlns="http://www.w3.org/2000/svg">
<g id="Group 2060">
<circle id="Ellipse 616" cx="30" cy="30" r="29.5" fill="#454550" stroke="#454550"/>
<path id="Vector" d="M29.0411 44V41.6027C26.1218 41.3044 23.6925 40.1857 21.7534 38.2466C19.8143 36.3075 18.6956 33.8782 18.3973 30.9589H16V29.0411H18.3973C18.6956 26.1218 19.8143 23.6925 21.7534 21.7534C23.6925 19.8143 26.1218 18.6956 29.0411 18.3973V16H30.9589V18.3973C33.8782 18.6956 36.3075 19.8143 38.2466 21.7534C40.1857 23.6925 41.3044 26.1218 41.6027 29.0411H44V30.9589H41.6027C41.3044 33.8782 40.1857 36.3075 38.2466 38.2466C36.3075 40.1857 33.8782 41.3044 30.9589 41.6027V44H29.0411ZM30 39.7169C32.6636 39.7169 34.949 38.7633 36.8562 36.8562C38.7633 34.949 39.7169 32.6636 39.7169 30C39.7169 27.3364 38.7633 25.051 36.8562 23.1438C34.949 21.2367 32.6636 20.2831 30 20.2831C27.3364 20.2831 25.051 21.2367 23.1438 23.1438C21.2367 25.051 20.2831 27.3364 20.2831 30C20.2831 32.6636 21.2367 34.949 23.1438 36.8562C25.051 38.7633 27.3364 39.7169 30 39.7169ZM30 34.7945C28.6575 34.7945 27.5228 34.331 26.5959 33.4041C25.6689 32.4772 25.2055 31.3425 25.2055 30C25.2055 28.6575 25.6689 27.5228 26.5959 26.5959C27.5228 25.6689 28.6575 25.2055 30 25.2055C31.3425 25.2055 32.4772 25.6689 33.4041 26.5959C34.331 27.5228 34.7945 28.6575 34.7945 30C34.7945 31.3425 34.331 32.4772 33.4041 33.4041C32.4772 34.331 31.3425 34.7945 30 34.7945ZM30 32.8767C30.8097 32.8767 31.4916 32.5997 32.0457 32.0457C32.5997 31.4916 32.8767 30.8097 32.8767 30C32.8767 29.1903 32.5997 28.5084 32.0457 27.9543C31.4916 27.4003 30.8097 27.1233 30 27.1233C29.1903 27.1233 28.5084 27.4003 27.9543 27.9543C27.4003 28.5084 27.1233 29.1903 27.1233 30C27.1233 30.8097 27.4003 31.4916 27.9543 32.0457C28.5084 32.5997 29.1903 32.8767 30 32.8767Z" fill="#E3E3E4"/>
</g>
</svg>
