<svg width="60" height="60" viewBox="0 0 60 60" fill="none" xmlns="http://www.w3.org/2000/svg">
<g id="Group 2064">
<path id="Union" fill-rule="evenodd" clip-rule="evenodd" d="M21 19C21 18.4477 20.5523 18 20 18C19.4477 18 19 18.4477 19 19V27C19 27.5523 19.4477 28 20 28C20.5523 28 21 27.5523 21 27V19ZM41 19C41 18.4477 40.5523 18 40 18C39.4477 18 39 18.4477 39 19V27C39 27.5523 39.4477 28 40 28C40.5523 28 41 27.5523 41 27V19ZM36 19C36 18.4477 36.4477 18 37 18C37.5523 18 38 18.4477 38 19V33C38 33.5523 37.5523 34 37 34C36.4477 34 36 33.5523 36 33V19ZM24 19C24 18.4477 23.5523 18 23 18C22.4477 18 22 18.4477 22 19V33C22 33.5523 22.4477 34 23 34C23.5523 34 24 33.5523 24 33V19ZM25 19C25 18.4477 25.4477 18 26 18C26.5523 18 27 18.4477 27 19V41C27 41.5523 26.5523 42 26 42C25.4477 42 25 41.5523 25 41V19ZM35 19C35 18.4477 34.5523 18 34 18C33.4477 18 33 18.4477 33 19V41C33 41.5523 33.4477 42 34 42C34.5523 42 35 41.5523 35 41V19Z" fill="#E3E3E4"/>
<circle id="Ellipse 616" cx="30" cy="30" r="29.5" stroke="#454550"/>
</g>
</svg>
