<svg width="27" height="31" viewBox="0 0 27 31" fill="none" xmlns="http://www.w3.org/2000/svg">
<path id="Logo" d="M8.13827 19.4343C7.72346 19.4941 6.59753 19.6536 6.30124 22.0854C6.14321 23.4408 6.26173 27.6466 6.30124 29.1415L6.34074 30.198H0.0790123V29.1814C0.0790123 28.9422 0.0790123 28.6432 0.0790123 28.3442C0.0395061 24.8361 0.0790122 20.9891 0.849383 18.9958C1.08642 18.4377 1.91605 16.6039 2.84444 15.9262C4.20741 14.79 5.51111 14.0525 7.3284 14.0525H18.2123C20.5432 13.6339 21.3333 12.5177 21.3333 9.52781C21.3333 6.47811 20.2864 4.96323 14.8938 4.96323C11.8123 4.96323 8.3358 4.96323 6.43951 4.96323H6.4L0 5.02303V0.0398653H0.928395C5.23457 -3.86126e-08 8.51358 0 13.8864 0C20.1086 0 26.4494 1.13616 26.4494 9.54774C26.4494 11.6008 26.2914 13.9529 25.3235 15.687C24.3753 17.182 23.0123 18.2782 21.2346 18.8762C21.3531 19.1354 21.4123 19.4343 21.4914 19.6536L25.3037 30.2378H19.6741V30.198L15.6444 20.411C15.5654 20.2316 15.1901 19.6935 14.8148 19.3347C14.7358 19.3347 14.6963 19.3347 14.5778 19.3347C14.5778 19.3347 10.0741 19.2151 8.57284 19.3347C8.51358 19.4144 8.27654 19.4343 8.13827 19.4343Z" fill="white"/>
</svg>
