<svg width="212" height="169" viewBox="0 0 212 169" fill="none" xmlns="http://www.w3.org/2000/svg">
<path id="Subtract" fill-rule="evenodd" clip-rule="evenodd" d="M24.579 165.774C24.3816 165.506 24.1853 165.236 23.9905 164.966L19.9451 167.905C20.14 168.175 20.3362 168.445 20.5336 168.713L24.579 165.774ZM21.5583 161.434C21.3752 161.155 21.1934 160.876 21.0129 160.596L16.819 163.319C16.9995 163.599 17.1813 163.879 17.3644 164.157L21.5583 161.434ZM18.7684 156.941C18.6001 156.653 18.4332 156.365 18.2677 156.075L13.9368 158.576C14.1024 158.865 14.2694 159.154 14.4376 159.441L18.7684 156.941ZM16.2179 152.308C16.0649 152.012 15.9133 151.715 15.7632 151.417L11.3071 153.688C11.4574 153.985 11.6089 154.282 11.7618 154.578L16.2179 152.308ZM13.9138 147.547C13.7766 147.243 13.6409 146.939 13.5066 146.634L8.93762 148.668C9.07202 148.973 9.20776 149.278 9.34485 149.581L13.9138 147.547ZM11.8634 142.671C11.7424 142.361 11.6229 142.05 11.5049 141.738L6.83557 143.53C6.95361 143.842 7.07324 144.153 7.19421 144.464L11.8634 142.671ZM10.073 137.694C9.96851 137.378 9.8656 137.061 9.76416 136.743L5.00757 138.289C5.10901 138.607 5.21204 138.924 5.31641 139.24L10.073 137.694ZM8.54761 132.63C8.45996 132.309 8.3739 131.986 8.28943 131.664L3.4585 132.958C3.54309 133.281 3.62915 133.603 3.71667 133.924L8.54761 132.63ZM7.2915 127.492C7.22095 127.167 7.15198 126.841 7.08459 126.514L2.19287 127.554C2.26038 127.88 2.32935 128.207 2.39978 128.532L7.2915 127.492ZM6.30786 122.296C6.25452 121.967 6.20276 121.638 6.15259 121.308L1.21338 122.09C1.26355 122.42 1.31543 122.75 1.36865 123.078L6.30786 122.296ZM5.59814 117.055C5.56213 116.724 5.52771 116.393 5.49487 116.061L0.521729 116.584C0.554688 116.916 0.588989 117.247 0.625 117.578L5.59814 117.055ZM5.16296 111.785C5.14417 111.453 5.12695 111.12 5.11145 110.787L0.118042 111.048C0.133667 111.382 0.150879 111.715 0.169556 112.047L5.16296 111.785ZM5.00122 106.5C5.00037 106.333 5 106.167 5 106C5 105.833 5.00037 105.667 5.00122 105.5H0.00109863C0.000366211 105.667 0 105.833 0 106C0 106.167 0.000366211 106.333 0.00109863 106.5H5.00122ZM5.11145 101.213C5.12695 100.879 5.14417 100.546 5.16296 100.214L0.169678 99.9523C0.151001 100.285 0.133789 100.618 0.118164 100.951L5.11145 101.213ZM5.49487 95.9384C5.52771 95.6064 5.56213 95.2749 5.59814 94.9438L0.625122 94.4211C0.589111 94.7522 0.55481 95.0838 0.521851 95.4158L5.49487 95.9384ZM6.15259 90.6915C6.20276 90.3617 6.25452 90.0324 6.30786 89.7036L1.36865 88.9213C1.31543 89.2501 1.26355 89.5794 1.21338 89.9092L6.15259 90.6915ZM7.08472 85.4853C7.1521 85.1586 7.22119 84.8325 7.29175 84.5069L2.3999 83.4671C2.32947 83.7927 2.2605 84.1188 2.19299 84.4455L7.08472 85.4853ZM8.28967 80.3353C8.37415 80.0126 8.46021 79.6906 8.54785 79.3692L3.71692 78.0748C3.6521 78.3127 3.58813 78.5508 3.52502 78.7894L3.45874 79.0409L8.28967 80.3353ZM9.76428 75.2563C9.86572 74.9385 9.96863 74.6215 10.0731 74.3051L5.31653 72.7596C5.21216 73.076 5.10913 73.393 5.00769 73.7107L9.76428 75.2563ZM11.505 70.2619C11.623 69.95 11.7426 69.6388 11.8635 69.3284L7.19434 67.536C7.07336 67.8465 6.95374 68.1577 6.83569 68.4695L11.505 70.2619ZM13.5067 65.366C13.641 65.0608 13.7767 64.7563 13.9139 64.4527L9.34497 62.4185C9.20789 62.7222 9.07214 63.0266 8.93774 63.3318L13.5067 65.366ZM15.7632 60.5826C15.9133 60.2849 16.0649 59.988 16.2179 59.692L11.7618 57.4215C11.6089 57.7176 11.4574 58.0144 11.3071 58.3121L15.7632 60.5826ZM18.2678 55.9246C18.4333 55.6351 18.6002 55.3466 18.7686 55.059L14.4376 52.5585C14.2694 52.8462 14.1025 53.1347 13.9369 53.4241L18.2678 55.9246ZM21.0129 51.4043C21.1934 51.124 21.3752 50.8446 21.5583 50.5661L17.3645 47.8426C17.1814 48.1211 16.9996 48.4005 16.8191 48.6808L21.0129 51.4043ZM23.9905 47.0342C24.1853 46.7636 24.3815 46.4941 24.579 46.2256L20.5336 43.2864C20.3362 43.555 20.14 43.8245 19.9451 44.095L23.9905 47.0342ZM27.1919 42.8255C27.4005 42.5655 27.6105 42.3065 27.8217 42.0487L23.9358 38.902C23.7247 39.1599 23.5148 39.4188 23.306 39.6787L27.1919 42.8255ZM30.6082 38.7893C30.8301 38.5406 31.0531 38.2929 31.2775 38.0464L27.5616 34.7007C27.3374 34.9472 27.1143 35.1949 26.8923 35.4436L30.6082 38.7893ZM34.2297 34.9363C34.4642 34.6995 34.7001 34.4638 34.9369 34.2292L31.4014 30.6936C31.1646 30.9283 30.9288 31.1639 30.6942 31.4008L34.2297 34.9363ZM38.0469 31.277C38.2935 31.0527 38.541 30.8296 38.7898 30.6077L35.4441 26.8919C35.1954 27.1139 34.9478 27.337 34.7012 27.5612L38.0469 31.277ZM42.0492 27.8213C42.307 27.6101 42.5659 27.4002 42.8259 27.1915L39.6792 23.3056C39.4193 23.5144 39.1604 23.7243 38.9025 23.9354L42.0492 27.8213ZM46.2262 24.5786C46.4946 24.3811 46.7642 24.185 47.0347 23.9901L44.0955 19.9447C43.825 20.1396 43.5555 20.3358 43.287 20.5332L46.2262 24.5786ZM50.5667 21.558C50.8451 21.3749 51.1245 21.1931 51.4048 21.0126L48.6813 16.8187C48.401 16.9992 48.1216 17.181 47.8431 17.3641L50.5667 21.558ZM55.0597 18.7682C55.3473 18.5999 55.6359 18.4329 55.9253 18.2674L53.4248 13.9365C53.1354 14.1021 52.8469 14.269 52.5592 14.4373L55.0597 18.7682ZM59.6926 16.2176C59.9886 16.0646 60.2855 15.913 60.5833 15.7628L58.3127 11.3068C58.015 11.457 57.7181 11.6086 57.4221 11.7615L59.6926 16.2176ZM64.4535 13.9135C64.7571 13.7763 65.0615 13.6405 65.3668 13.5063L63.3326 8.93735C63.0275 9.07172 62.723 9.20746 62.4193 9.3446L64.4535 13.9135ZM69.3292 11.8632C69.6396 11.7422 69.9508 11.6227 70.2627 11.5046L68.4703 6.83542C68.1584 6.95352 67.8473 7.073 67.5369 7.19394L69.3292 11.8632ZM74.3062 10.0728C74.6224 9.96832 74.9395 9.86539 75.2572 9.76398L73.7117 5.00732C73.3939 5.10883 73.077 5.21176 72.7606 5.31616L74.3062 10.0728ZM79.3707 8.54739C79.6921 8.45978 80.0142 8.37372 80.3368 8.28922L79.0424 3.45831C78.7197 3.54291 78.3977 3.62897 78.0763 3.71652L79.3707 8.54739ZM84.5083 7.29138C84.8339 7.22083 85.1599 7.15186 85.4866 7.08447L84.4468 2.19269C84.1201 2.26016 83.7941 2.32913 83.4685 2.3996L84.5083 7.29138ZM89.7046 6.30771C90.0333 6.25439 90.3625 6.20264 90.6924 6.1525L89.91 1.21326C89.6838 1.24771 89.458 1.28287 89.2324 1.31873L88.9222 1.3685L89.7046 6.30771ZM94.9452 5.59802C95.2762 5.56198 95.6078 5.52756 95.9397 5.49472L95.417 0.521667C95.0851 0.554565 94.7535 0.58902 94.4225 0.624969L94.9452 5.59802ZM100.215 5.16287C100.548 5.1441 100.88 5.12692 101.214 5.11136L100.952 0.118042C100.619 0.133667 100.286 0.150848 99.9534 0.169556L100.215 5.16287ZM105.5 5.00119V0.00112915L105.705 0.000396729L106 -3.05176e-05C106.167 -3.05176e-05 106.334 0.000366211 106.5 0.00112915V5.00119C106.334 5.0004 106.167 4.99997 106 4.99997C105.833 4.99997 105.667 5.0004 105.5 5.00119ZM110.786 5.11139C111.12 5.12695 111.453 5.1441 111.785 5.16287L112.047 0.169556C111.714 0.150848 111.381 0.133667 111.048 0.118042L110.786 5.11139ZM116.06 5.49475C116.392 5.52759 116.724 5.56201 117.055 5.59805L117.578 0.625C117.38 0.603516 117.182 0.582581 116.984 0.562195C116.851 0.548431 116.717 0.534912 116.583 0.521667L116.06 5.49475ZM121.308 6.15256C121.638 6.2027 121.967 6.25443 122.296 6.30777L123.078 1.36856C122.749 1.31531 122.42 1.26358 122.09 1.21335L121.308 6.15256ZM126.514 7.0845C126.84 7.15192 127.167 7.22092 127.492 7.29147L128.532 2.39966C128.206 2.32916 127.88 2.26019 127.553 2.19272L126.514 7.0845ZM131.663 8.28928C131.986 8.37381 132.308 8.45987 132.63 8.54749L133.924 3.71661C133.603 3.62906 133.281 3.54297 132.958 3.45837L131.663 8.28928ZM136.743 9.7641C137.061 9.86551 137.378 9.96848 137.694 10.0729L139.24 5.31628C138.923 5.21188 138.606 5.10898 138.289 5.00748L136.743 9.7641ZM141.738 11.5049C142.05 11.6229 142.361 11.7424 142.671 11.8634L144.464 7.19421C144.153 7.07327 143.842 6.95377 143.53 6.83566L141.738 11.5049ZM146.634 13.5064C146.939 13.6407 147.243 13.7765 147.547 13.9137L149.581 9.34476C149.354 9.24243 149.127 9.1409 148.9 9.04016L148.668 8.93753L146.634 13.5064ZM151.417 15.763C151.715 15.9131 152.012 16.0647 152.308 16.2177L154.578 11.7616C154.401 11.67 154.223 11.5789 154.045 11.4882C153.926 11.4276 153.807 11.3671 153.688 11.3069L151.417 15.763ZM156.075 18.2676C156.365 18.4331 156.653 18.6001 156.941 18.7684L159.441 14.4375C159.154 14.2692 158.865 14.1023 158.576 13.9367L156.075 18.2676ZM160.595 21.0127C160.876 21.1931 161.155 21.375 161.433 21.5581L164.157 17.3642C163.879 17.1811 163.599 16.9993 163.319 16.8188L160.595 21.0127ZM164.966 23.9904C165.236 24.1852 165.506 24.3814 165.774 24.5788L168.713 20.5334C168.574 20.4313 168.435 20.3295 168.296 20.2281C168.166 20.1334 168.036 20.0391 167.905 19.945L164.966 23.9904ZM169.175 27.1919C169.435 27.4006 169.693 27.6105 169.951 27.8217L173.098 23.9358C172.953 23.8171 172.808 23.6989 172.662 23.5809C172.549 23.489 172.435 23.3974 172.321 23.306L169.175 27.1919ZM173.211 30.6082C173.46 30.8301 173.707 31.0532 173.954 31.2776L177.299 27.5617C177.053 27.3374 176.805 27.1143 176.557 26.8924L173.211 30.6082ZM177.064 34.2297C177.3 34.4642 177.536 34.6999 177.771 34.9367L181.306 31.4012C181.072 31.1644 180.836 30.9287 180.599 30.6941L177.064 34.2297ZM180.723 38.0468C180.947 38.2933 181.17 38.541 181.392 38.7897L185.108 35.444C184.886 35.1953 184.663 34.9477 184.439 34.701L180.723 38.0468ZM184.179 42.0491C184.39 42.307 184.6 42.5659 184.808 42.8259L188.694 39.6792C188.486 39.4193 188.276 39.1603 188.065 38.9024L184.179 42.0491ZM187.422 46.2263C187.619 46.4948 187.815 46.7642 188.01 47.0347L192.055 44.0956C191.86 43.8251 191.664 43.5556 191.467 43.2871L187.422 46.2263ZM190.442 50.5669C190.625 50.8453 190.807 51.1247 190.988 51.4051L195.181 48.6816C195.001 48.4012 194.819 48.1218 194.636 47.8433L190.442 50.5669ZM193.232 55.0597C193.4 55.3473 193.567 55.6358 193.733 55.9252L198.063 53.4247C197.956 53.2365 197.847 53.0486 197.739 52.861L197.563 52.5593L193.232 55.0597ZM195.783 59.6929C195.936 59.9889 196.087 60.2858 196.237 60.5835L200.693 58.313C200.543 58.0153 200.392 57.7185 200.239 57.4224L195.783 59.6929ZM198.086 64.4535C198.224 64.7571 198.359 65.0616 198.494 65.3668L203.063 63.3326C202.928 63.0274 202.792 62.7229 202.655 62.4193L198.086 64.4535ZM200.137 69.3289C200.258 69.6393 200.377 69.9504 200.495 70.2623L205.164 68.4699C205.046 68.1581 204.927 67.8469 204.806 67.5365L200.137 69.3289ZM201.927 74.3058C202.032 74.6222 202.135 74.9392 202.236 75.2569L206.993 73.7114C206.891 73.3937 206.788 73.0767 206.684 72.7603L201.927 74.3058ZM203.452 79.3701C203.54 79.6914 203.626 80.0135 203.711 80.3362L208.542 79.0417C208.457 78.7191 208.371 78.397 208.283 78.0756L203.452 79.3701ZM204.708 84.5077C204.779 84.8333 204.848 85.1594 204.915 85.4861L209.807 84.4463C209.74 84.1197 209.671 83.7935 209.6 83.468L204.708 84.5077ZM205.692 89.7041C205.746 90.0329 205.797 90.3622 205.847 90.692L210.787 89.9097C210.736 89.5799 210.685 89.2506 210.631 88.9218L205.692 89.7041ZM206.402 94.9449C206.438 95.2758 206.472 95.6074 206.505 95.9393L211.478 95.4166C211.445 95.0847 211.411 94.7532 211.375 94.4221L206.402 94.9449ZM206.837 100.215C206.856 100.547 206.873 100.88 206.889 101.213L211.882 100.952C211.866 100.618 211.849 100.286 211.83 99.9531L206.837 100.215ZM206.999 105.5C207 105.667 207 105.833 207 106C207 106.167 207 106.333 206.999 106.5H211.999C212 106.333 212 106.167 212 106C212 105.833 212 105.667 211.999 105.5H206.999ZM206.889 110.786C206.873 111.119 206.856 111.452 206.837 111.785L211.83 112.046C211.84 111.877 211.849 111.707 211.858 111.538C211.866 111.374 211.874 111.211 211.882 111.048L206.889 110.786ZM206.505 116.06C206.472 116.392 206.438 116.724 206.402 117.055L211.375 117.577C211.411 117.246 211.445 116.915 211.478 116.583L206.505 116.06ZM205.848 121.308C205.797 121.637 205.746 121.967 205.692 122.296L210.631 123.078C210.685 122.749 210.737 122.42 210.787 122.09L205.848 121.308ZM204.916 126.513C204.848 126.84 204.779 127.166 204.709 127.492L209.6 128.531C209.671 128.206 209.74 127.88 209.807 127.553L204.916 126.513ZM203.711 131.663C203.626 131.986 203.54 132.308 203.453 132.629L208.284 133.923C208.371 133.602 208.457 133.28 208.542 132.957L203.711 131.663ZM202.236 136.743C202.135 137.06 202.032 137.377 201.927 137.694L206.684 139.239C206.788 138.923 206.891 138.606 206.993 138.288L202.236 136.743ZM200.495 141.737C200.377 142.049 200.258 142.36 200.137 142.671L204.806 144.463C204.851 144.347 204.896 144.231 204.941 144.115C205.016 143.92 205.091 143.725 205.165 143.53L200.495 141.737ZM198.494 146.633C198.359 146.938 198.224 147.243 198.087 147.546L202.655 149.581C202.792 149.277 202.928 148.972 203.063 148.667L198.494 146.633ZM196.237 151.416C196.087 151.714 195.936 152.011 195.783 152.307L200.239 154.578C200.392 154.281 200.543 153.985 200.693 153.687L196.237 151.416ZM193.733 156.075C193.567 156.364 193.4 156.653 193.232 156.94L197.563 159.441C197.665 159.266 197.766 159.092 197.867 158.917C197.933 158.803 197.998 158.689 198.064 158.575L193.733 156.075ZM190.988 160.595C190.807 160.875 190.625 161.154 190.442 161.433L194.636 164.156C194.734 164.007 194.832 163.858 194.929 163.708C195.014 163.578 195.098 163.448 195.182 163.318L190.988 160.595ZM188.01 164.965C187.815 165.236 187.619 165.505 187.422 165.774L191.467 168.713C191.583 168.554 191.7 168.395 191.815 168.236C191.896 168.126 191.975 168.015 192.055 167.904L188.01 164.965Z" fill="#6F6F79"/>
</svg>
