<svg width="23" height="24" viewBox="0 0 23 24" fill="none" xmlns="http://www.w3.org/2000/svg">
<path d="M0 20.4V18.6H2.52V9.42C2.52 7.78 3.015 6.295 4.005 4.965C4.995 3.635 6.3 2.8 7.92 2.46V1.59C7.92 1.13 8.085 0.75 8.415 0.45C8.745 0.15 9.14 0 9.6 0C10.06 0 10.455 0.15 10.785 0.45C11.115 0.75 11.28 1.13 11.28 1.59V2.46C11.78 2.56 12.285 2.735 12.795 2.985C13.305 3.235 13.75 3.53 14.13 3.87L13.485 4.515L12.84 5.16C12.4 4.8 11.895 4.53 11.325 4.35C10.755 4.17 10.18 4.08 9.6 4.08C8.1 4.08 6.845 4.595 5.835 5.625C4.825 6.655 4.32 7.92 4.32 9.42V18.6H14.91V14.16H16.71V18.6H19.2V20.4H0ZM9.6 24C8.94 24 8.375 23.765 7.905 23.295C7.435 22.825 7.2 22.26 7.2 21.6H12C12 22.26 11.765 22.825 11.295 23.295C10.825 23.765 10.26 24 9.6 24Z" fill="#E3E3E4"/>
<circle cx="19" cy="8" r="4" fill="#F13232"/>
</svg>
