<svg width="122" height="25" viewBox="0 0 122 25" fill="none" xmlns="http://www.w3.org/2000/svg">
<g id="Group 2804">
<rect id="Rectangle 2730" width="122" height="1" fill="#454550"/>
<path id="Union" fill-rule="evenodd" clip-rule="evenodd" d="M53 25C54.1046 25 55 24.1046 55 23C55 21.8954 54.1046 21 53 21C51.8954 21 51 21.8954 51 23C51 24.1046 51.8954 25 53 25ZM63 23C63 24.1046 62.1046 25 61 25C59.8954 25 59 24.1046 59 23C59 21.8954 59.8954 21 61 21C62.1046 21 63 21.8954 63 23ZM71 23C71 24.1046 70.1046 25 69 25C67.8954 25 67 24.1046 67 23C67 21.8954 67.8954 21 69 21C70.1046 21 71 21.8954 71 23Z" fill="#E3E3E4"/>
</g>
</svg>
