<svg width="60" height="60" viewBox="0 0 60 60" fill="none" xmlns="http://www.w3.org/2000/svg">
<g id="Group 2063">
<circle id="Ellipse 616" cx="30" cy="30" r="29.5" stroke="#454550"/>
<path id="Vector" d="M20 42C19.4444 42 18.9722 41.8056 18.5833 41.4167C18.1944 41.0278 18 40.5556 18 40V34.2667H20V40H25.7333V42H20ZM34.2667 42V40H40V34.2667H42V40C42 40.5556 41.8056 41.0278 41.4167 41.4167C41.0278 41.8056 40.5556 42 40 42H34.2667ZM18 25.7333V20C18 19.4444 18.1944 18.9722 18.5833 18.5833C18.9722 18.1944 19.4444 18 20 18H25.7333V20H20V25.7333H18ZM40 25.7333V20H34.2667V18H40C40.5556 18 41.0278 18.1944 41.4167 18.5833C41.8056 18.9722 42 19.4444 42 20V25.7333H40ZM29 32.3333C29.9333 32.3333 30.7222 32.0111 31.3667 31.3667C32.0111 30.7222 32.3333 29.9333 32.3333 29C32.3333 28.0667 32.0111 27.2778 31.3667 26.6333C30.7222 25.9889 29.9333 25.6667 29 25.6667C28.0667 25.6667 27.2778 25.9889 26.6333 26.6333C25.9889 27.2778 25.6667 28.0667 25.6667 29C25.6667 29.9333 25.9889 30.7222 26.6333 31.3667C27.2778 32.0111 28.0667 32.3333 29 32.3333ZM35.4333 36.8667L31.9667 33.4C31.4778 33.7111 30.9833 33.9444 30.4833 34.1C29.9833 34.2556 29.4889 34.3333 29 34.3333C27.5333 34.3333 26.2778 33.8111 25.2333 32.7667C24.1889 31.7222 23.6667 30.4667 23.6667 29C23.6667 27.5333 24.1889 26.2778 25.2333 25.2333C26.2778 24.1889 27.5333 23.6667 29 23.6667C30.4667 23.6667 31.7222 24.1889 32.7667 25.2333C33.8111 26.2778 34.3333 27.5333 34.3333 29C34.3333 29.4889 34.25 29.9833 34.0833 30.4833C33.9167 30.9833 33.6778 31.4778 33.3667 31.9667L36.8667 35.4667L35.4333 36.8667Z" fill="#E3E3E4"/>
</g>
</svg>
