<svg width="242" height="193" viewBox="0 0 242 193" fill="none" xmlns="http://www.w3.org/2000/svg">
<g id="Mask group">
<mask id="mask0_1_196" style="mask-type:alpha" maskUnits="userSpaceOnUse" x="0" y="0" width="242" height="193">
<path id="Subtract" fill-rule="evenodd" clip-rule="evenodd" d="M211.937 184.667C210.336 186.95 210.759 190.118 212.992 191.789C215.18 193.428 218.288 193.009 219.866 190.777C233.808 171.059 242 146.986 242 121C242 54.1735 187.826 -3.05176e-05 121 -3.05176e-05C54.1736 -3.05176e-05 0 54.1735 0 121C0 147.03 8.21973 171.141 22.2052 190.878C23.7845 193.107 26.8899 193.524 29.0768 191.886C31.3107 190.214 31.7324 187.043 30.1277 184.76C17.4455 166.718 10 144.729 10 121C10 59.6964 59.6964 9.99997 121 9.99997C182.304 9.99997 232 59.6964 232 121C232 144.688 224.58 166.643 211.937 184.667Z" fill="#22B692"/>
</mask>
<g mask="url(#mask0_1_196)">
<rect id="Rectangle 3075" y="-3.05176e-05" width="242" height="194" fill="#22B692"/>
<path id="Rectangle 3076" d="M130 120L242 80V194H130V120Z" fill="#FFB661"/>
<path id="Rectangle 3077" d="M130 130L242 170V194H130V130Z" fill="#F13232"/>
</g>
</g>
</svg>
