<svg width="22" height="19" viewBox="0 0 22 19" fill="none" xmlns="http://www.w3.org/2000/svg">
<path fill-rule="evenodd" clip-rule="evenodd" d="M9.62405 9.02256C8.30075 9.02256 7.21805 8.60151 6.37595 7.7594C5.53384 6.91729 5.11279 5.83459 5.11279 4.51128C5.11279 3.18797 5.53384 2.10526 6.37595 1.26316C7.21805 0.421053 8.30075 0 9.62405 0C10.9474 0 12.0301 0.421053 12.8722 1.26316C13.7143 2.10526 14.1353 3.18797 14.1353 4.51128C14.1353 5.83459 13.7143 6.91729 12.8722 7.7594C12.0301 8.60151 10.9474 9.02256 9.62405 9.02256ZM0 18.6767V15.8496C0 15.1479 0.175446 14.5163 0.526306 13.9549C0.877197 13.3935 1.38345 12.9624 2.0451 12.6617C3.48871 12.0201 4.82706 11.5589 6.06015 11.2782C7.29324 10.9975 8.4812 10.8571 9.62405 10.8571H10.3158C10.1955 11.1378 10.1053 11.4135 10.0451 11.6842C9.98495 11.9549 9.93484 12.2807 9.89474 12.6617H9.62405C8.46115 12.6617 7.3233 12.787 6.21054 13.0376C5.09775 13.2882 3.94989 13.7043 2.76691 14.2857C2.44611 14.4461 2.20551 14.6717 2.0451 14.9624C1.8847 15.2531 1.8045 15.5489 1.8045 15.8496V16.8722H9.89474C9.995 17.2331 10.1153 17.5589 10.2556 17.8496C10.396 18.1404 10.5664 18.416 10.7669 18.6767H0ZM9.62405 7.21804C10.406 7.21804 11.0526 6.96241 11.5639 6.45113C12.0752 5.93985 12.3308 5.29323 12.3308 4.51128C12.3308 3.72932 12.0752 3.08271 11.5639 2.57143C11.0526 2.06015 10.406 1.80451 9.62405 1.80451C8.8421 1.80451 8.1955 2.06015 7.6842 2.57143C7.17294 3.08271 6.9173 3.72932 6.9173 4.51128C6.9173 5.29323 7.17294 5.93985 7.6842 6.45113C8.1955 6.96241 8.8421 7.21804 9.62405 7.21804ZM17 11H19V14H22V16H19V19H17V16H14V14H17V11Z" fill="#E3E3E4"/>
</svg>
