<svg width="60" height="60" viewBox="0 0 60 60" fill="none" xmlns="http://www.w3.org/2000/svg">
<g id="Group 2064">
<path id="Vector" d="M20.8 41.8999C20.32 41.8999 19.9 41.7199 19.54 41.3599C19.18 40.9999 19 40.5799 19 40.0999V21.4999C19 21.0199 19.18 20.5999 19.54 20.2399C19.9 19.8799 20.32 19.6999 20.8 19.6999H22.75V17.8999H24.7V19.6999H34.9V17.8999H36.85V19.6999H38.8C39.28 19.6999 39.7 19.8799 40.06 20.2399C40.42 20.5999 40.6 21.0199 40.6 21.4999V40.0999C40.6 40.5799 40.42 40.9999 40.06 41.3599C39.7 41.7199 39.28 41.8999 38.8 41.8999H20.8ZM20.8 40.0999H38.8V27.1999H20.8V40.0999ZM20.8 25.3999H38.8V21.4999H20.8V25.3999ZM23.8 31.6999V29.8999H35.8V31.6999H23.8ZM23.8 37.0999V35.2999H32.17V37.0999H23.8Z" fill="#E3E3E4"/>
<circle id="Ellipse 616" cx="30" cy="30" r="29.5" stroke="#454550"/>
</g>
</svg>
